<?xml version="1.0" encoding="utf-8"?>
<!-- Generator: Adobe Illustrator 25.1.0, SVG Export Plug-In . SVG Version: 6.00 Build 0)  -->
<svg version="1.1" baseProfile="tiny" id="レイヤー_1"
	 xmlns="http://www.w3.org/2000/svg" xmlns:xlink="http://www.w3.org/1999/xlink" x="0px" y="0px" viewBox="0 0 120 44"
	 overflow="visible" xml:space="preserve">
<polygon id="Fill-1" fill-rule="evenodd" fill="#004896" points="0,0.8 0,43.2 120,43.2 120,11.9 109,0.8 "/>
<path id="Combined-Shape" fill-rule="evenodd" fill="#FEFEFE" d="M71.2,10v6.8h4.9v1.6h-4.9v11.8c0,2.8,0.2,4.1,3.3,4.1
	c0.5,0,1,0,1.5-0.2v1.6c-0.9,0.2-1.8,0.3-2.7,0.3c-3.9,0-6.2-0.6-6.2-5.2V18.4H64v-1.6h3.2v-3.2L71.2,10z M96.7,16.8v18.8h-4v-4.6
	h-0.1c-0.7,1.8-2.3,5-6.3,5c-5.1,0-5.4-4.7-5.4-7.8l0-6.2c0-2.8-0.5-4.2-3-4.3v-0.9h7v11.7c0,3.7,1.4,4.8,3.3,4.8
	c2.6,0,4.4-3.4,4.4-6.8v-4.5c0-2.8-0.5-4.2-3-4.3v-0.9L96.7,16.8z M106.7,16.4c2.1,0,3.8,0.5,4.5,0.7v3l-0.1-0.1l0,0l-0.2-0.1
	c-0.8-0.6-2.6-1.8-4.5-1.8c-1.3,0-2.8,0.5-2.8,2.2c0,3.8,8.9,3.9,8.9,10.1c0,4-3.3,5.6-7.3,5.6c-2.5,0-4.2-0.5-5.2-0.7v-3.2
	c1.2,0.8,3.1,2.1,5.3,2.1c2.6,0,3.5-1.3,3.5-2.7c0-4-8.9-4.2-8.9-9.8C100,18.9,102,16.4,106.7,16.4z M38.2,8.4v11.1h0.1
	c0.7-1.3,1.9-3,5.1-3c5.8,0,7.2,5.3,7.2,10.2c0,5.1-2,9.5-7.3,9.5c-2.7,0-4.2-1.7-5.2-2.7l0,0l-2.8,2.3h-1.1l0-23.1
	c0-2.5-0.2-2.9-2.7-3.2l-0.4,0v-1H38.2z M20.8,8.4l9.9,27.3h-4.2l-3-8.4H13.1l-3,8.4H7.5l8.1-22.1c0.2-0.7,0.7-2.1,0.7-2.4
	c0-1.6-1.5-1.7-3.1-1.9l0,0V8.4H20.8z M59.6,16.8v18.8h-4V22.1c0-2.8-0.6-4.3-3.1-4.5v-0.8L59.6,16.8z M42.2,18.6
	c-3.5,0-4,4.2-4,6.5l0,1.8c0,2.2,0.4,7.1,3.7,7.1c3.8,0,4.2-4.7,4.2-7.9C46,23.2,45.7,18.6,42.2,18.6z M18.1,13.5l-4.3,11.8h8.9
	L18.1,13.5z M57.5,8.4c1.4,0,2.6,1.1,2.6,2.5c0,1.4-1.2,2.6-2.6,2.6c-1.4,0-2.5-1.1-2.5-2.6C55,9.5,56.1,8.4,57.5,8.4z"/>
</svg>
